<?xml version="1.0" standalone="no"?>
<!DOCTYPE svg PUBLIC "-//W3C//DTD SVG 20010904//EN"
 "http://www.w3.org/TR/2001/REC-SVG-20010904/DTD/svg10.dtd">
<svg version="1.0" xmlns="http://www.w3.org/2000/svg"
 width="200.000000pt" height="200.000000pt" viewBox="0 0 200.000000 200.000000"
 preserveAspectRatio="xMidYMid meet">

<g transform="translate(0.000000,200.000000) scale(0.100000,-0.100000)"
fill="#000000" stroke="none">
<path d="M0 1361 l0 -639 87 -42 c49 -23 95 -46 103 -51 8 -5 22 -12 30 -15
33 -13 66 -29 78 -38 8 -6 22 -11 31 -13 9 -1 35 -10 56 -19 22 -10 43 -17 48
-16 4 1 7 -3 7 -8 0 -6 7 -10 15 -10 8 0 15 -9 15 -20 0 -11 7 -20 16 -20 8 0
13 4 10 8 -3 5 1 9 9 9 11 0 12 -4 4 -14 -11 -13 -1 -18 24 -14 5 1 6 -3 2 -9
-3 -5 1 -10 9 -10 12 0 14 -7 9 -32 -4 -21 -3 -29 5 -24 6 4 9 13 5 21 -3 8 0
15 7 15 6 0 8 5 5 11 -4 6 2 5 14 -2 14 -9 17 -16 9 -20 -7 -4 -15 -6 -18 -4
-4 2 -7 -1 -7 -8 0 -7 -2 -19 -4 -27 -3 -9 5 -16 19 -18 23 -4 31 -22 10 -22
-9 0 -8 -3 2 -10 12 -7 10 -11 -10 -18 l-24 -9 25 -7 c13 -5 29 -7 34 -6 6 1
5 -3 -1 -10 -6 -6 -20 -12 -31 -13 -12 0 -19 -6 -16 -14 4 -9 10 -10 23 -3 17
9 30 4 30 -12 0 -5 -4 -7 -9 -4 -13 9 -21 -20 -9 -32 11 -11 7 -14 -39 -28 -7
-2 -13 3 -13 11 0 9 -6 12 -16 8 -15 -5 -15 -7 0 -15 19 -11 21 -28 3 -28 -7
0 -17 -8 -23 -18 -11 -16 -9 -18 17 -14 28 4 33 12 30 41 -2 7 2 10 8 6 16 -9
14 -30 -4 -45 -8 -7 -12 -17 -9 -22 4 -6 -3 -5 -15 1 -11 7 -21 8 -21 2 0 -5
8 -12 18 -16 16 -6 16 -7 -2 -21 -15 -10 -22 -11 -27 -2 -6 9 -11 9 -23 -1
-12 -10 -13 -17 -6 -27 9 -9 6 -13 -12 -17 -13 -2 325 -5 750 -6 l772 -1 0
1000 0 1000 -1000 0 -1000 0 0 -639z m515 -216 c0 -22 -31 -33 -47 -17 -17 17
-1 44 24 40 15 -2 23 -10 23 -23z m920 0 c0 -22 -31 -33 -47 -17 -17 17 -1 44
24 40 15 -2 23 -10 23 -23z m-1022 -22 c37 -35 3 -59 -43 -31 -15 9 -22 10
-31 1 -9 -9 1 -17 37 -35 41 -19 49 -28 52 -54 4 -43 -19 -64 -70 -64 -42 0
-78 21 -78 47 0 15 46 18 55 3 9 -15 45 -12 45 4 0 7 -15 19 -32 26 -46 18
-68 39 -68 65 0 56 85 80 133 38z m497 -2 c14 -10 29 -35 35 -56 7 -31 6 -44
-11 -75 -21 -37 -21 -37 -1 -61 l19 -24 -28 -3 c-20 -3 -33 2 -43 17 -9 15
-24 21 -48 21 -50 0 -93 45 -93 97 0 92 95 138 170 84z m120 -76 l0 -105 -25
0 -25 0 0 105 0 105 25 0 25 0 0 -105z m500 75 c0 -11 7 -20 15 -20 8 0 15 -9
15 -20 0 -11 -7 -20 -15 -20 -11 0 -15 -11 -15 -40 0 -29 4 -40 15 -40 8 0 15
-9 15 -20 0 -15 -7 -20 -28 -20 -40 0 -52 17 -52 72 0 26 -4 48 -10 48 -5 0
-10 9 -10 20 0 11 5 20 10 20 6 0 10 9 10 20 0 15 7 20 25 20 18 0 25 -5 25
-20z m-1010 -100 l0 -80 -30 0 -30 0 0 80 0 80 30 0 30 0 0 -80z m175 64 c10
-11 15 -36 15 -80 0 -61 -1 -64 -25 -64 -22 0 -24 4 -27 57 -2 47 -6 58 -22
61 -26 5 -36 -15 -36 -70 0 -44 -2 -48 -25 -48 -25 0 -25 1 -25 79 l0 79 65 0
c45 0 70 -4 80 -14z m535 -65 l0 -79 -47 0 c-27 0 -57 0 -67 -1 -53 -1 -82 95
-42 140 15 16 30 20 87 20 l69 0 0 -80z m80 69 c0 -9 3 -9 12 0 19 19 38 14
38 -11 0 -14 -9 -26 -22 -32 -19 -8 -24 -19 -26 -57 -3 -43 -5 -48 -28 -48
-23 0 -24 2 -24 80 0 79 0 80 25 80 14 0 25 -5 25 -12z m130 -68 l0 -80 -30 0
-29 0 4 78 c2 42 4 78 4 80 1 1 12 2 26 2 25 0 25 -1 25 -80z m207 33 l19 -48
19 48 c14 38 22 47 41 47 13 0 24 -3 24 -7 0 -4 -21 -58 -47 -120 -44 -105
-50 -113 -75 -113 l-27 0 18 43 18 42 -33 78 -33 77 28 0 c25 0 31 -7 48 -47z
m-492 -234 c11 -16 1 -19 -13 -3 -7 8 -8 14 -3 14 5 0 13 -5 16 -11z m105 -5
c0 -6 -20 -10 -45 -10 -41 0 -53 5 -41 17 10 9 86 3 86 -7z m-738 -22 c4 -12
-1 -18 -13 -18 -20 0 -22 5 -13 30 7 19 20 13 26 -12z m178 4 c0 -21 -5 -23
-40 -23 -30 0 -40 4 -41 16 0 12 -2 11 -9 -4 -8 -19 -9 -19 -9 2 -1 20 3 22
32 19 18 -3 40 0 48 5 19 12 19 12 19 -15z m-115 3 c4 -6 -2 -19 -14 -30 l-21
-20 0 31 c0 30 21 42 35 19z m146 -8 c7 11 9 11 9 -3 0 -10 -7 -18 -15 -18 -9
0 -15 9 -14 23 1 19 2 19 6 3 4 -15 7 -16 14 -5z m39 9 c-13 -9 -13 -11 0 -20
13 -8 12 -10 -2 -10 -10 0 -18 6 -18 13 0 17 10 27 24 27 6 0 4 -5 -4 -10z
m36 -9 c0 -11 -4 -17 -8 -15 -4 3 -8 12 -8 20 0 8 4 14 8 14 4 0 8 -9 8 -19z
m64 -1 c0 -13 -7 -20 -20 -20 -13 0 -20 7 -20 20 0 13 7 20 20 20 13 0 20 -7
20 -20z m31 6 c11 7 11 -7 0 -24 -7 -11 -10 -10 -15 3 -3 9 -6 22 -5 28 0 8 2
8 6 -1 2 -6 9 -10 14 -6z m159 -2 c0 -8 -19 -13 -24 -6 -3 5 1 9 9 9 8 0 15
-2 15 -3z m203 -24 c4 -3 -19 -7 -53 -7 -37 0 -60 4 -60 11 0 6 -5 4 -10 -4
-8 -13 -10 -13 -10 2 0 14 9 15 63 11 34 -3 66 -9 70 -13z m32 0 c3 -5 1 -10
-4 -10 -6 0 -11 5 -11 10 0 6 2 10 4 10 3 0 8 -4 11 -10z m-701 -395 c-4 -8
-11 -15 -16 -15 -6 0 -5 6 2 15 7 8 14 15 16 15 2 0 1 -7 -2 -15z m56 -55 c0
-11 -2 -20 -4 -20 -2 0 -6 9 -9 20 -3 11 -1 20 4 20 5 0 9 -9 9 -20z"/>
<path d="M807 1082 c-40 -44 -2 -115 51 -96 37 13 51 54 28 88 -20 31 -56 34
-79 8z"/>
<path d="M1112 1043 c-15 -28 4 -65 30 -61 17 2 24 11 26 32 5 42 -38 64 -56
29z"/>
<path d="M630 790 c0 -5 5 -10 10 -10 6 0 10 5 10 10 0 6 -4 10 -10 10 -5 0
-10 -4 -10 -10z"/>
<path d="M670 790 c0 -5 5 -10 10 -10 6 0 10 5 10 10 0 6 -4 10 -10 10 -5 0
-10 -4 -10 -10z"/>
<path d="M560 790 c0 -5 5 -10 10 -10 6 0 10 5 10 10 0 6 -4 10 -10 10 -5 0
-10 -4 -10 -10z"/>
<path d="M485 451 c-3 -5 -1 -12 5 -16 5 -3 10 -3 10 1 0 3 8 -2 18 -13 9 -10
14 -14 10 -8 -4 7 -5 14 -2 18 3 3 -3 10 -15 16 -12 7 -22 7 -26 2z"/>
<path d="M434 33 c10 -11 36 -12 36 -2 0 5 -10 9 -22 9 -12 0 -18 -3 -14 -7z"/>
<path d="M58 13 c7 -3 16 -2 19 1 4 3 -2 6 -13 5 -11 0 -14 -3 -6 -6z"/>
<path d="M266 8 c3 -5 10 -6 15 -3 13 9 11 12 -6 12 -8 0 -12 -4 -9 -9z"/>
</g>
</svg>
