<?xml version="1.0" standalone="no"?>
<!DOCTYPE svg PUBLIC "-//W3C//DTD SVG 20010904//EN"
 "http://www.w3.org/TR/2001/REC-SVG-20010904/DTD/svg10.dtd">
<svg version="1.0" xmlns="http://www.w3.org/2000/svg"
 width="209.000000pt" height="55.000000pt" viewBox="0 0 209.000000 55.000000"
 preserveAspectRatio="xMidYMid meet">

<g transform="translate(0.000000,55.000000) scale(0.100000,-0.100000)"
fill="#000000" stroke="none">
<path d="M820 543 c-30 -11 -50 -37 -50 -63 0 -35 23 -55 84 -71 64 -18 80
-43 46 -70 -18 -16 -32 -19 -60 -14 -19 4 -39 11 -44 16 -15 13 -26 11 -26 -6
0 -22 33 -35 88 -35 38 0 53 5 70 23 45 47 21 86 -69 115 -59 19 -75 45 -43
69 21 15 68 17 94 3 13 -7 19 -6 23 4 10 24 -71 44 -113 29z"/>
<path d="M161 514 c0 -11 3 -14 6 -6 3 7 2 16 -1 19 -3 4 -6 -2 -5 -13z"/>
<path d="M1727 523 c-4 -3 -7 -15 -7 -25 0 -10 -7 -18 -15 -18 -8 0 -15 -4
-15 -10 0 -5 7 -10 15 -10 12 0 15 -13 15 -58 0 -74 19 -104 63 -100 18 2 31
8 29 13 -2 6 -11 9 -22 7 -26 -4 -40 27 -40 87 0 50 1 51 30 51 38 0 40 18 3
22 -20 2 -29 9 -31 26 -3 22 -13 28 -25 15z"/>
<path d="M1002 481 c-20 -12 -12 -176 8 -176 11 0 16 16 20 68 5 70 16 87 56
87 34 0 44 -20 44 -92 0 -51 3 -68 14 -68 10 0 15 19 18 66 4 71 20 94 63 94
35 0 45 -20 45 -92 0 -54 3 -68 15 -68 12 0 15 15 15 73 0 62 -3 77 -20 92
-26 24 -83 24 -109 1 -13 -12 -21 -14 -26 -6 -15 24 -56 31 -88 15 -37 -18
-35 -18 -39 0 -2 9 -8 11 -16 6z"/>
<path d="M1393 479 c-33 -9 -42 -22 -24 -34 5 -3 12 -1 16 5 9 14 58 12 79 -3
31 -23 14 -40 -39 -43 -69 -3 -99 -49 -57 -87 22 -20 83 -22 100 -5 9 9 12 9
12 0 0 -7 7 -12 15 -12 23 0 21 131 -2 158 -22 26 -58 34 -100 21z m87 -111
c0 -20 -32 -48 -55 -48 -27 0 -49 24 -41 45 7 18 96 22 96 3z"/>
<path d="M1577 484 c-4 -4 -7 -47 -7 -96 0 -72 3 -88 15 -88 12 0 15 13 15 60
0 62 21 100 55 100 8 0 15 7 15 15 0 18 -8 18 -40 1 -21 -12 -26 -12 -35 1 -6
8 -14 11 -18 7z"/>
<path d="M154 441 c-2 -2 -4 -35 -4 -73 l0 -68 58 0 57 0 -102 -98 -103 -98 0
-52 0 -52 53 0 52 0 95 95 95 96 5 -48 5 -48 68 -3 67 -3 0 175 0 175 -171 3
c-94 2 -173 1 -175 -1z m334 -173 l3 -158 -55 0 -55 0 -3 60 -3 61 -105 -106
c-100 -100 -107 -105 -147 -105 l-43 0 0 43 c0 41 3 46 105 141 58 54 105 101
105 105 0 4 -26 8 -57 8 l-58 0 -3 57 -3 57 158 -3 158 -3 3 -157z"/>
<path d="M64 427 c-2 -7 -3 -69 -2 -138 l3 -124 5 138 c3 75 4 137 2 137 -1 0
-5 -6 -8 -13z"/>
<path d="M780 134 l0 -124 25 0 25 0 0 119 c0 119 0 119 -25 123 l-25 5 0
-123z"/>
<path d="M1130 216 c0 -16 -6 -26 -15 -26 -8 0 -15 -7 -15 -15 0 -9 7 -18 15
-21 10 -4 15 -21 15 -53 0 -65 20 -91 71 -91 33 0 40 3 37 17 -2 9 -14 20 -28
23 -22 5 -25 11 -26 53 -1 43 1 47 22 47 32 0 33 37 2 42 -15 2 -23 10 -23 23
0 14 -8 21 -27 23 -24 3 -28 0 -28 -22z"/>
<path d="M890 105 c0 -95 0 -95 25 -95 24 0 25 2 25 65 0 61 2 65 25 71 46 12
55 0 55 -71 l0 -65 30 0 30 0 0 63 c0 34 -6 73 -13 87 -17 34 -59 47 -100 32
-21 -8 -33 -9 -35 -2 -2 5 -12 10 -23 10 -17 0 -19 -8 -19 -95z"/>
<path d="M1289 171 c-22 -23 -29 -39 -29 -68 1 -60 38 -93 105 -93 50 0 80 17
64 36 -8 10 -23 12 -50 8 -38 -6 -69 6 -69 27 0 5 32 9 70 9 69 0 70 1 70 26
0 39 -50 84 -95 84 -27 0 -44 -8 -66 -29z m99 -23 c21 -21 13 -28 -33 -28 -25
0 -45 4 -45 8 0 15 24 32 45 32 12 0 26 -5 33 -12z"/>
<path d="M1490 105 c0 -95 0 -95 25 -95 23 0 25 3 25 51 0 60 13 89 40 89 15
0 20 7 20 25 0 27 -10 31 -41 15 -13 -7 -19 -7 -19 0 0 5 -11 10 -25 10 -25 0
-25 0 -25 -95z"/>
<path d="M1637 193 c-4 -3 -7 -46 -7 -95 l0 -88 30 0 30 0 0 65 c0 61 2 65 25
71 46 12 55 0 55 -71 l0 -65 30 0 c30 0 30 1 30 55 0 107 -42 154 -114 126
-20 -7 -32 -8 -34 -1 -4 11 -35 14 -45 3z"/>
<path d="M1870 181 c0 -16 8 -20 45 -23 l45 -3 -50 -58 c-70 -82 -68 -87 35
-87 78 0 85 2 85 20 0 17 -7 20 -51 20 l-51 0 52 61 c28 34 49 67 47 73 -2 6
-35 12 -80 14 -71 3 -77 1 -77 -17z"/>
</g>
</svg>
